<svg xmlns="http://www.w3.org/2000/svg" viewBox="0 0 512 512"><defs><style>.cls-1{fill:#00a651;}.cls-2{fill:#e7e2d4;}.cls-3{fill:#075161;}.cls-4{fill:#06111b;}.cls-5{fill:#fff;}.cls-6{fill:#0a0b14;}.cls-7{fill:#ed9ca0;}.cls-8{fill:#004520;}.cls-9{fill:#1c75bc;stroke-linecap:round;stroke-linejoin:round;}.cls-10,.cls-11,.cls-9{stroke:#000;}.cls-11,.cls-9{stroke-width:5px;}.cls-10{fill:#090c12;}.cls-10,.cls-11{stroke-miterlimit:10;}.cls-12{fill:#80690d;}.cls-13{fill:#fed21a;}.cls-14{fill:#fffbab;}</style></defs><g id="Layer_2" data-name="Layer 2"><path class="cls-1" d="M327.39,386.23c-21,0-43.22-4.29-66.09-12.75-19.3-7.14-33-15.26-43.07-25.56a67.45,67.45,0,0,1-6-6.93c-6.21-8.25-10.89-18.62-13.91-30.81a129.71,129.71,0,0,1-2.53-15.34,136.21,136.21,0,0,0-2.19-13.78,32,32,0,0,0-4-8.76,50.41,50.41,0,0,1-3.49-6.71c-7.42-18.22-1.18-40.69,7.75-53.84,10.5-15.44,27.66-26.67,54-35.33,29.91-9.83,61.91-14.13,89.56-17.38a218.76,218.76,0,0,1,25.11-1.84c13.19,0,24,2.26,33.05,6.89,7.06,3.62,13.55,8.85,21.05,16.94,3.12,3.35,6.15,6.89,8.74,9.95,1.91,2.25,4.07,4.8,6.14,7.42,5.48,6.92,8.9,12.66,11.09,18.58,4.21,11.42,3.65,24,3.16,35.06-1.14,25.82-2.44,55.09-15.95,79.72a91.7,91.7,0,0,1-11.57,16.46c-15.87,18.07-38.74,30.71-64.39,35.58A142.38,142.38,0,0,1,327.39,386.23Z"/><path d="M362.53,159.7c11.15,0,22.07,1.57,31.91,6.62,7.82,4,14.35,9.92,20.35,16.41,3,3.2,5.85,6.54,8.68,9.87,2,2.41,4.1,4.84,6.08,7.35,4.36,5.5,8.28,11.33,10.7,17.9,4,10.78,3.52,22.6,3,34.08-1.2,26.95-2.68,55-15.65,78.63a89.09,89.09,0,0,1-11.26,16c-16,18.18-39,30.22-63,34.77a138.42,138.42,0,0,1-26,2.39c-22.14,0-44.37-4.88-65.22-12.6-15.42-5.7-30.75-13.32-42.16-25a65.74,65.74,0,0,1-5.76-6.68c-6.65-8.84-10.84-19.23-13.49-29.91-2.36-9.58-2.49-19.53-4.71-29.08-1.39-6-5.38-10.3-7.63-15.84-6.59-16.23-2-37.45,7.51-51.51,12-17.67,32.42-27.68,52.71-34.35,28.79-9.47,59-13.74,89.07-17.28a216.24,216.24,0,0,1,24.82-1.82m0-5v0a222.73,222.73,0,0,0-25.4,1.85c-27.77,3.27-59.93,7.59-90,17.5-26.89,8.84-44.46,20.37-55.28,36.29a68.91,68.91,0,0,0-10.61,26.93c-1.76,10.63-.86,20.75,2.6,29.27a52.63,52.63,0,0,0,3.65,7,30.1,30.1,0,0,1,3.75,8.07,132.43,132.43,0,0,1,2.14,13.51,130.83,130.83,0,0,0,2.58,15.63c3.1,12.52,7.93,23.19,14.34,31.71a71.3,71.3,0,0,0,6.21,7.2c10.34,10.55,24.32,18.86,44,26.13,23.14,8.57,45.66,12.91,66.95,12.91a143.94,143.94,0,0,0,26.93-2.48c26.19-5,49.56-17.89,65.8-36.38A94.49,94.49,0,0,0,432,333c13.78-25.14,15.09-54.71,16.25-80.81.5-11.32,1.07-24.15-3.32-36-2.28-6.19-5.82-12.13-11.47-19.28-2.08-2.63-4.26-5.2-6.19-7.48-2.61-3.07-5.65-6.64-8.84-10.05-7.68-8.29-14.38-13.68-21.72-17.44-9.41-4.82-20.59-7.17-34.19-7.17Z"/><path class="cls-2" d="M448.81,250.3c-1.22,7.1-2.83,14.9-8.54,19.28-3.31,2.54-7.58,3.54-11.73,3.66a33.09,33.09,0,0,1-4.88-.21,38.47,38.47,0,0,1-16.05-5.76,46.51,46.51,0,0,1-8.61-7c-1.76-1.81-6-5.45-5.8-8.28s5.78-5.72,7.9-7.23a62.47,62.47,0,0,1,10.57-6.17,37.14,37.14,0,0,1,14-3.36,26.22,26.22,0,0,1,10.4,1.72,39.89,39.89,0,0,1,10.68,6.88,7.06,7.06,0,0,1,1.92,2.16A7.28,7.28,0,0,1,448.81,250.3Z"/><path class="cls-3" d="M429.6,252.77c-.07,7.93-2.32,15.07-5.94,20.26a38.47,38.47,0,0,1-16.05-5.76,46.51,46.51,0,0,1-8.61-7c-1.76-1.81-6-5.45-5.8-8.28s5.78-5.72,7.9-7.23c.46-.34.94-.66,1.42-1a58.89,58.89,0,0,1,9.15-5.19c.87-.39,1.76-.74,2.65-1.08a36,36,0,0,1,11.32-2.28A37.69,37.69,0,0,1,429.6,252.77Z"/><path class="cls-4" d="M403.92,248a11.83,11.83,0,0,0,3.57,7.3A7.9,7.9,0,0,0,415.2,257a8.45,8.45,0,0,0,4.83-5.19,17.68,17.68,0,0,0,.73-7.24c-.15-2.1-.62-4.44-2.37-5.61-1.44-1-3.32-.84-5-.63-1.9.23-7.41.22-8.77,1.59S403.69,246.21,403.92,248Z"/><path class="cls-5" d="M408.23,242.79a5.83,5.83,0,0,0,1.4,3.52,2.88,2.88,0,0,0,3.22.76,4.29,4.29,0,0,0,2.09-2.6,10.44,10.44,0,0,0,.41-3.56,3.58,3.58,0,0,0-.93-2.71,2.67,2.67,0,0,0-2.1-.24c-.8.14-3.11.2-3.7.9S408.16,241.93,408.23,242.79Z"/><path class="cls-2" d="M357.06,267.79c0,.56-12.1,1.12-13.25,1.15a130.81,130.81,0,0,1-31.73-2.83c-2.93-.61-5.85-1.33-8.74-2.16a132.38,132.38,0,0,1-12.9-4.4,128.72,128.72,0,0,1-12.39-5.72,94.14,94.14,0,0,1-11.72-7c-5.43-4,2.39-7,5.49-7.77,4.2-1,9.08-1.82,13.32-2.64,7.84-1.53,14.55-2.32,22.49-3.28,5.64-.68,12.57.63,18.19,1.14a38.17,38.17,0,0,1,7.56,1.41,33.23,33.23,0,0,1,23.68,32.09Z"/><path class="cls-3" d="M326.91,243.24c-.39,10.79-6.55,19.75-14.83,22.87-2.93-.61-5.85-1.33-8.74-2.16a132.38,132.38,0,0,1-12.9-4.4,28.35,28.35,0,0,1-5.32-20.84c2.17-3.21,6.22-3.42,9.42-3.94q7-1.17,14.09-2c1.44-.17,2.87-.34,4.33-.48,4.23-.4,8.66,1.64,12.86,2A29.12,29.12,0,0,1,326.91,243.24Z"/><path class="cls-4" d="M315.22,236.93a19.31,19.31,0,0,1-2.4,8.35c-2.2,3.52-6.1,5.32-9.16,4.69s-5.25-3.36-6.21-6.77a22.84,22.84,0,0,1-.67-8.64c4.56-.75,9.13-1.39,13.66-1.9,1.39-.15,2.78-.31,4.17-.41a2.85,2.85,0,0,1,.32.54A8.3,8.3,0,0,1,315.22,236.93Z"/><path class="cls-5" d="M308.53,234.89a8.06,8.06,0,0,1-1,3.42,3.84,3.84,0,0,1-3.76,1.92,3.65,3.65,0,0,1-2.54-2.78,9.51,9.51,0,0,1-.27-3.53q2.81-.46,5.59-.78l1.71-.17a1.59,1.59,0,0,1,.13.22A3.52,3.52,0,0,1,308.53,234.89Z"/><path class="cls-6" d="M243.27,244.88l14.64-3.47a22.93,22.93,0,0,1-14.79-10.82,30.72,30.72,0,0,0,31.53-.21l-.31-4a12.21,12.21,0,0,0,11.45,1.36,8.32,8.32,0,0,1-2.47-5,32.54,32.54,0,0,0,12,2.34,9,9,0,0,1,4.85-6.48,4.28,4.28,0,0,0,.16,4.59,64.8,64.8,0,0,1,37.86,2.12c5.72,2.12,11.33,5.22,14.91,10.17,3.7,5.12,4.82,11.62,5.61,17.88.67,5.31,1,11.24-2.32,15.43.87-8.9-3.31-17.87-9.91-23.91s-15.37-9.35-24.24-10.51-17.89-.29-26.71,1.19a193.16,193.16,0,0,0-23,5.34,28.93,28.93,0,0,0-5.26,1.73c-1.51.8-1.46,1.86-2.46,2.93-1.6,1.7-6.47-.5-8.78-.79A45.69,45.69,0,0,0,243.27,244.88Z"/><path class="cls-6" d="M409.7,233.11c8.18-3.62,17.3-4.4,26.23-5a18.81,18.81,0,0,0,6.2-1.14,6.3,6.3,0,0,0,4-4.58l.94,10c3.58-1,6.28-4.1,7.67-7.54s1.65-7.23,1.77-10.95a30.79,30.79,0,0,1-3.54,23.32,49.69,49.69,0,0,0,13.77-3.54,33,33,0,0,1-11.78,9.83,17.09,17.09,0,0,0,17.32-2.14,28.28,28.28,0,0,1-17.79,8.51,10.72,10.72,0,0,1-5.81-.79c-1.81-.93-3.08-2.63-4.49-4.1-6.67-6.92-17.39-8.9-26.75-6.67a43,43,0,0,0-13.66,6.1,59.89,59.89,0,0,0-5.85,4.43c-1.09.92-3.61,4.44-4.63,2.27-1.23-2.58,4.43-9.09,6-10.77A32.94,32.94,0,0,1,409.7,233.11Z"/><path d="M253.75,228.67a176,176,0,0,1,24.36-13.09,93.43,93.43,0,0,1,26.78-7.15c9.22-1,18.83-.32,27.63,3a61.22,61.22,0,0,1,6.37,2.94,49.73,49.73,0,0,1,5.91,3.77,53.7,53.7,0,0,1,5.25,4.62,45.07,45.07,0,0,1,4.36,5.41l-.16.12a51.64,51.64,0,0,0-22.42-15A65.36,65.36,0,0,0,305,210a92.26,92.26,0,0,0-26.54,6.49,174.8,174.8,0,0,0-24.63,12.33Z"/><path d="M389.65,243.72a52.74,52.74,0,0,1,7.54-13.78,35.48,35.48,0,0,1,12.25-10,29.22,29.22,0,0,1,7.54-2.57,26.13,26.13,0,0,1,7.94-.26,26.64,26.64,0,0,1,14.18,6.34l-.13.15a26.11,26.11,0,0,0-14.15-5.5,25.83,25.83,0,0,0-14.64,3.26,42.05,42.05,0,0,0-11.44,9.87,111,111,0,0,0-8.91,12.61Z"/><path class="cls-3" d="M348.41,201.47c2.83,2.31,5.55,4.88,8.95,6.22s7.73,1.13,10.13-1.62c3.68-4.22.62-10.84-3.18-14.94-9-9.72-21.67-15.56-34.72-17.73s-26.5-.86-39.39,2.14c-5.32,1.24-10.7,2.82-15.11,6-2.07,1.51-8.39,7-6,10.14,1.77,2.32,7.73-1.54,10-2.31a73.92,73.92,0,0,1,24.15-3.77C319.52,185.8,335.8,191.15,348.41,201.47Z"/><path class="cls-3" d="M429.55,200c-8,.27-15.1,2-20.74,5.27-2.46,1.43-4.73,3.16-8.11,3.48a15.86,15.86,0,0,1-11.7-4.57c-5.3-5.21-3.82-10.79-.8-13.7,5.95-5.73,15.55-8.08,26.59-7.7,3,3.2,5.85,6.54,8.68,9.87C425.51,195,427.57,197.44,429.55,200Z"/><path class="cls-7" d="M419.65,340.67c-.37,0-.73,0-1.1,0a52.18,52.18,0,0,1-10.09-1.76c-1.22-.3-2.44-.6-3.66-.86a84.44,84.44,0,0,0-18.08-1.7c-5.93,0-12.06.41-18,.8s-12.22.81-18.35.81a95.89,95.89,0,0,1-16.08-1.21c-20.44-3.47-38.51-15.36-54.46-25.84-2.64-1.75-5.64-3.72-7.74-6.68a12.77,12.77,0,0,1-2.31-6.14,9.38,9.38,0,0,1,1.05-5.32,7.54,7.54,0,0,1,7-4,14.09,14.09,0,0,1,3.78.58c.5.14,1,.27,1.55.4a65.43,65.43,0,0,0,9.8,1.21c2.75.18,5.64.27,8.6.27,5.15,0,10.7-.27,16.95-.82,7.59-.67,15.3-1.68,22.75-2.66,9.54-1.25,19.41-2.55,29.23-3.16,3.92-.24,7.55-.36,11.1-.36a126,126,0,0,1,18.67,1.3c3,.45,6,1,8.91,1.59,6,1.17,12.28,2.37,18.29,2.37a39.29,39.29,0,0,0,6.27-.48l2-.35a37.51,37.51,0,0,1,6.79-.83,11.63,11.63,0,0,1,7.41,2.28c3.69,2.85,5,8.42,3.29,13.55a20.65,20.65,0,0,1-3.41,6,47.93,47.93,0,0,1-4.06,4.42l-.84.83a55.44,55.44,0,0,0-4.12,4.36,19,19,0,0,0-2.1,3.16,31.68,31.68,0,0,0-1.77,4.65c-.92,2.84-1.87,5.77-4,8.26C430,338.75,425.28,340.67,419.65,340.67Z"/><path d="M381.57,286.69a124.52,124.52,0,0,1,18.3,1.27c9.18,1.38,18.38,4,27.56,4a41.66,41.66,0,0,0,6.68-.51,53.5,53.5,0,0,1,8.4-1.15,9.21,9.21,0,0,1,5.88,1.76c3.11,2.4,3.72,7.05,2.45,10.76a18.24,18.24,0,0,1-3,5.26,47.53,47.53,0,0,1-3.86,4.18,72.75,72.75,0,0,0-5.14,5.4,20,20,0,0,0-2.38,3.59c-2.07,4.05-2.49,9-5.43,12.43-2.72,3.21-7.14,4.5-11.39,4.5-.32,0-.65,0-1,0-4.52-.19-8.91-1.62-13.35-2.56a88,88,0,0,0-18.6-1.76c-12.05,0-24.25,1.61-36.33,1.61a93.29,93.29,0,0,1-15.66-1.18c-19.62-3.33-36.88-14.53-53.5-25.46-2.6-1.71-5.28-3.5-7.08-6a10.13,10.13,0,0,1-1.86-4.9,7,7,0,0,1,.76-3.91,5,5,0,0,1,4.76-2.71,11.51,11.51,0,0,1,3.1.49c.54.15,1.08.28,1.63.42a68.6,68.6,0,0,0,10.23,1.28c2.92.19,5.84.27,8.76.27,5.73,0,11.46-.33,17.18-.83,17.35-1.53,34.52-4.73,51.91-5.81,3.64-.23,7.3-.36,10.95-.36m0-5c-3.6,0-7.29.12-11.26.37-9.9.61-19.81,1.91-29.39,3.17-7.43,1-15.11,2-22.65,2.65-6.18.54-11.65.81-16.74.81-2.9,0-5.74-.09-8.43-.26a64,64,0,0,1-9.41-1.16l-1.45-.37a16.44,16.44,0,0,0-4.43-.67,10,10,0,0,0-9.17,5.34,12,12,0,0,0-1.34,6.66,15.22,15.22,0,0,0,2.77,7.41c2.38,3.35,5.72,5.55,8.41,7.32,16.15,10.63,34.46,22.67,55.41,26.22a98.75,98.75,0,0,0,16.5,1.25c6.21,0,12.47-.41,18.52-.81,5.88-.4,12-.8,17.81-.8a82.1,82.1,0,0,1,17.55,1.64c1.19.26,2.36.54,3.6.85a53.85,53.85,0,0,0,10.58,1.83c.39,0,.79,0,1.19,0,6.38,0,11.78-2.23,15.2-6.27,2.43-2.86,3.5-6.17,4.45-9.1a30.62,30.62,0,0,1,1.62-4.29,16.3,16.3,0,0,1,1.82-2.72,53.25,53.25,0,0,1,3.93-4.15l.85-.84a52.29,52.29,0,0,0,4.26-4.65,23.14,23.14,0,0,0,3.79-6.69c2.1-6.15.41-12.87-4.1-16.37a14.09,14.09,0,0,0-8.95-2.8,40.08,40.08,0,0,0-7.24.87c-.67.12-1.32.24-2,.34a35.61,35.61,0,0,1-5.88.45c-5.76,0-11.61-1.13-17.81-2.32-2.93-.57-6-1.15-9-1.61a128.51,128.51,0,0,0-19.05-1.33Z"/><path class="cls-6" d="M447.84,308.07a47.53,47.53,0,0,1-3.86,4.18,72.75,72.75,0,0,0-5.14,5.4,29.28,29.28,0,0,1-4.94.72c-8.6.51-17-2-25.55-3.42-20.3-3.35-41-.29-61.56.89s-42.21.17-59.93-10.29c-3.61-2.14-7-4.65-10.85-6.37a22.86,22.86,0,0,0-3.72-1.33,15.12,15.12,0,0,0-8.51,0c2.87-6.94,12.58-9.93,18.85-5.79l-.09.09c-1.87,1.46-3.75,2.94-5.6,4.41,16.43,13.59,39.13,16.71,60.44,16.14s42.65-4.26,63.85-2c9.09.94,18.11,3,27.25,2.85a42.92,42.92,0,0,0,13.44-2.26C443,310.83,445.58,309.11,447.84,308.07Z"/><path class="cls-8" d="M416.36,346.57c-16,18.18-39,30.22-63,34.77-30.43,5.79-62.16.55-91.21-10.21-15.42-5.7-30.75-13.32-42.16-25,35.77,12.44,75,15.38,113.25,15.94,16.27.23,32.65.08,48.65-2.93C394,356.91,405.83,352.93,416.36,346.57Z"/><path d="M275.59,282.25a22.21,22.21,0,0,0-10.25,3.4,19.75,19.75,0,0,0-9.39,17.9,22.16,22.16,0,0,0,3,10.36,18,18,0,0,1-4.58-10.24,19,19,0,0,1,10.17-19.37A18.1,18.1,0,0,1,275.59,282.25Z"/><path d="M261.48,281.28a15.17,15.17,0,0,0-6.31,2.39,12.7,12.7,0,0,0-5.78,11,15.08,15.08,0,0,0,1.62,6.55,10.84,10.84,0,0,1-3.18-6.43,11.92,11.92,0,0,1,6.56-12.48A10.81,10.81,0,0,1,261.48,281.28Z"/></g><g id="Layer_3" data-name="Layer 3"><path class="cls-9" d="M435.67,204.14l-10.6-18.06a38.79,38.79,0,0,1-8.2,24.28c1.24-22.1-13.14-44.2-33.84-52a70.78,70.78,0,0,1-37.92,53.23c6-13.54,12.76-38.24-3.58-58.23-15.09,41.1-51.76,54.39-97.11,51-15.36,29.48-31.06,60.1-33,93.29s13.9,69.85,45,81.54c-16.78,1.7-34.09-8.51-40.73-24,0,16.32,1.64,33.56,11.12,46.83s29.05,20.54,42.75,11.67c-17.16,19.3-47.73,25.12-70.78,13.47-6.68,16.64-28,25.59-44.59,18.67-1.2,22.8-16.93,44.17-38.34,52.1l11.94-23.29a84,84,0,0,1-51.6,6.59,39.21,39.21,0,0,0,31.44-26.77,66.15,66.15,0,0,1-31.48,7.25C94,446.85,101.67,421,94.92,398.92,84.2,415.66,58.27,420,42.69,407.64c14.85,4.43,29.25-10.4,32.46-25.56s-.54-30.88.29-46.36c1.41-26.48,15.94-50.23,30.05-72.69q22.64-36,45.25-72l12-19.05c1.62-2.59,3.26-5.19,4.89-7.78-12.21-6.38-11.41-24.49-5.33-36.85s15.81-23.83,16.08-37.6q-10.76,18-21.48,35.9c-5.34-23.19,9.07-49.25,31.54-57.06a33.56,33.56,0,0,1,22.26-16.73l-8.09-.43A59.91,59.91,0,0,1,231.06,28l-6.12-2.66a90.2,90.2,0,0,1,54.35-4.67,93.51,93.51,0,0,1,48.54,12.14l-5.17-9.38a114.18,114.18,0,0,1,47.78,45.1,40.87,40.87,0,0,0-7.9-23.29c21.77,15.82,34,43.82,30.93,70.56-.76,6.51-2.35,13.1-1,19.52,2.13,10.15,11.06,17.36,20,22.71s18.72,10,24.91,18.32S444.24,198.28,435.67,204.14Z"/><path class="cls-10" d="M365.57,101c7.49-4.91,13.74-12.46,14.95-21.33,5.21,5.74,4.83,15.16.41,21.52s-12,9.93-19.67,11.15a57.43,57.43,0,0,1-11.12.54c-2.68-.1-6.06.24-3.46-2.88,1.78-2.13,6.31-2.76,8.8-3.79A61,61,0,0,0,365.57,101Z"/><path class="cls-10" d="M335.33,44.56A42.38,42.38,0,0,1,340,74.2a41.13,41.13,0,0,1-7.82,16.91c-1.61,2-2.7,3.6-3.92.64-1-2.49,1.33-5.56,2.24-7.68A70.68,70.68,0,0,0,335.33,44.56Z"/><path class="cls-10" d="M325.77,43.17c2.08,8.27,3.12,16,1.36,24.47-.81,3.92-5.46,20.69-10.65,20C325.23,74.23,329.79,59.18,325.77,43.17Z"/><path class="cls-10" d="M309.49,58.42c-.75-9.92-3.14-19.64-5.51-29.3.46,1.87,2.72,4.17,3.64,6a50.37,50.37,0,0,1,3,7,54.48,54.48,0,0,1,2.86,14.57c.57,9.57-1.13,20.43-6.22,28.7-1.49-2.28,1.51-9,1.9-11.88A71.83,71.83,0,0,0,309.49,58.42Z"/><path class="cls-10" d="M259.18,27.68A58.12,58.12,0,0,1,284.09,53c5,10,7.72,22.62,5.54,33.69C284.5,64.19,276,44.1,259.18,27.68Z"/><path class="cls-10" d="M251.29,46.45c9.42,1,17.35,8,21.91,16.33a67.72,67.72,0,0,1,7.56,25.13A100.61,100.61,0,0,0,268.9,65a90.91,90.91,0,0,0-8.15-9.91C259,53.22,253.94,46.72,251.29,46.45Z"/><path class="cls-10" d="M216.15,57.89c13.12.22,26.6,2.17,37.92,8.82a43.21,43.21,0,0,1,14.28,13.51c1.64,2.52,8.48,15.41,4.72,17.37-6.77-10.54-12.58-19.88-23.13-27.29A68.4,68.4,0,0,0,216.15,57.89Z"/><path class="cls-10" d="M182.89,82.55c14.3-2.57,29,1.11,42.51,6.51,8,3.22,15.8,7,23.68,10.61,2.08.94,6.31,4.24,7.66,1.45s-2.4-4.64-4.08-5.53a121.33,121.33,0,0,0-44.25-13.13C200.18,81.62,191.09,81.08,182.89,82.55Z"/><path class="cls-10" d="M225.38,114.24c-10.71-2.28-21.17-5.67-31.93-7.68a23.08,23.08,0,0,0-8.19-.44,8.89,8.89,0,0,0-6.58,4.45c8.48-3.12,18-.89,26.4,2.39s16.59,7.63,25.54,8.87c2.61.36,24.14.41,20.75-4.58-1.39-2-9.11-.7-11.55-.87A103.47,103.47,0,0,1,225.38,114.24Z"/><path class="cls-10" d="M183.72,140.62l12.83,1.83a21.23,21.23,0,0,0-6.79,15.84c0-2.33,14.52-10.18,16.72-11.59Q215.36,141,224.67,136c2.24-1.2,8.11-2.88,9.54-4.88,2.24-3.12-3.55-.79-4.89-.35q-10.38,3.38-21.06,5.74A231.28,231.28,0,0,1,183.72,140.62Z"/><path class="cls-10" d="M318,151.24a69.81,69.81,0,0,1-13.6,13.87,158.68,158.68,0,0,1-46.68,26.19c27.41-3.63,53.34-21.25,66.15-45.89,1-1.83,2.88-8.89-.45-5.55-1.08,1.08-1.62,4.73-2.36,6.23A39.91,39.91,0,0,1,318,151.24Z"/><path class="cls-10" d="M340,131.39c7.72.57,15.5,1.15,23,3.09s14.79,5.32,20.25,10.82q-13-3.31-26.19-5.71c3.06,5.2,3.74,11.51,3.05,17.5s-2.66,11.74-4.62,17.43c2.32-6.77-2.24-14.27-4.42-20.32A115,115,0,0,0,340,131.39Z"/><path class="cls-10" d="M248.21,190.45c-11.75,13.86-26.12,25.26-41.07,35.6,23.07-16,41.82-40.47,54.28-65.33q2.71-5.41,5.07-11c1.07-2.54,1.83-6.62,3.71-8.5,3.19,6.19-2.3,16.93-4.81,22.46A115.19,115.19,0,0,1,248.21,190.45Z"/><path class="cls-10" d="M241.39,188.33c-.14-5.62,4-13.87,6.11-19a59.34,59.34,0,0,1,4.66-9c1.19-1.86,4.77-5,4.27-7.07C246.32,160.93,241.09,176.05,241.39,188.33Z"/><path class="cls-10" d="M168.74,235c-8.52,16.74-17.75,33.2-24.39,50.78s-10.6,36.57-8.09,55.19a393,393,0,0,1,39.06-106.07c4.93-9.08,10.25-18.06,13.2-27.95a47.51,47.51,0,0,0,2-17.45c-.23-2.68-2.85-15.6-4.5-8-1.27,5.84-1.22,11.91-2.75,17.8a129.58,129.58,0,0,1-5.77,16.91C174.89,222.62,171.87,228.84,168.74,235Z"/><path class="cls-10" d="M108.3,330.67C104.44,339,100,347,96.87,355.58s-4.8,18-2.91,26.9,7.89,17.34,16.5,20.4a98.41,98.41,0,0,1-1.84-47.43c3-14.26,9.1-27.65,13.42-41.57a170.52,170.52,0,0,0,7.61-54.72c-.06-2.61-.14-7.5-2.61-9-1.94,2-1.05,7-1.18,9.69q-.27,5.24-.83,10.44A193,193,0,0,1,121.67,291,191.15,191.15,0,0,1,108.3,330.67Z"/><path class="cls-10" d="M194.41,277.53a174.24,174.24,0,0,1,18-29A77.11,77.11,0,0,0,206,276.93l7.23-20.13c1.64-4.57,6.68-13,5.57-17.82-1.47-6.42-6.86,2.59-8.56,4.84a91.87,91.87,0,0,0-9.09,14.87A89.14,89.14,0,0,0,194.41,277.53Z"/><path class="cls-10" d="M161,319.21c-9.2,9.92-16.84,22.82-15.18,36.25a55.1,55.1,0,0,1,21.25-35.34c5.55-4.14,11.91-7.24,16.95-12,4.77-4.48,8.89-11.76,6.73-18.46-2.55.11-4.66,4.47-6.24,6.27-2.47,2.81-5.12,5.46-7.82,8.05C171.44,309.05,166,313.87,161,319.21Z"/><path class="cls-10" d="M194.64,344.9c1.2,14.79,6.37,29.57,16.35,40.55-5.41-27.38-8.45-54.84-11.48-82.54C194.69,315.46,193.57,331.55,194.64,344.9Z"/><path class="cls-10" d="M166.6,353.29c-8.7,11.46-17.34,24.51-16.46,38.87A32.76,32.76,0,0,0,167.89,419c-4.79-6.75-9.67-13.68-11.95-21.64a23.5,23.5,0,0,0,20.78,9.46,31.36,31.36,0,0,1-14-26.71c.33-11.26,6.69-21.32,12.57-30.93,3.23-5.26,14.18-21.1,9.9-27.38A148.27,148.27,0,0,1,166.6,353.29Z"/><path class="cls-10" d="M139.83,416.33c3.52,4.57,7.54,8.9,12.61,11.67s11.32,3.8,16.67,1.63a81.24,81.24,0,0,1-40.06-52.42c-3.56-15.33-2.6-31.65-8-46.44-1.79,23.89-2.25,46.6,8.44,68.75A96.32,96.32,0,0,0,139.83,416.33Z"/><path class="cls-10" d="M131.42,432.33c-1.49,3.91-4,7.31-6.58,10.65L111.4,460.75c7.51-4.41,15.06-9.29,20-16.48,3.69-5.42,7.66-17.23,2.47-22.87C131.52,423.75,132.6,429.23,131.42,432.33Z"/><path class="cls-10" d="M94.94,454.28c7.75-3.86,14.92-9.56,18.7-17.36a24.38,24.38,0,0,0,1.76-17.05c-.35-1.2-1.85-5.69-4-4.1-1,.75-.74,6.61-1,8.05A57.33,57.33,0,0,1,94.94,454.28Z"/></g><g id="Layer_4" data-name="Layer 4"><path class="cls-11" d="M286.4,131.74c-28.79,10.91-53.27,30.84-81.22,43.78-1,.48-2.09,1-3.13,1.41A182.34,182.34,0,0,1,150.74,191l12-19.05c8.05-2.91,16.14-5.66,24-9.06,2.64-1.15,5.27-2.33,7.87-3.55a326.17,326.17,0,0,0,47.58-27.15c2.9-2,28.5-18.76,28.08-21.59A42.36,42.36,0,0,0,286.4,131.74Z"/><path class="cls-12" d="M386.62,149.65a17.32,17.32,0,0,1-5.27-1.05c-4.21-1.41-8.41-3.06-12.46-4.65-4.7-1.85-9.56-3.77-14.45-5.29a104.73,104.73,0,0,0-21.91-4.34c-3.2-.29-6.46-.43-9.68-.43-2.47,0-5,.08-7.43.25a109,109,0,0,0-19.59,3.17c-1.81.47-3.61,1.14-5.53,1.84-3.59,1.33-7.3,2.69-11.09,2.69a14.24,14.24,0,0,1-1.87-.11,19.51,19.51,0,0,1-15-11.22,21.88,21.88,0,0,1-1.39-13,25,25,0,0,1,3.9-9.4c4.19-6.1,11.21-10.53,19.26-12.17a38.29,38.29,0,0,1,7.72-.76,49.91,49.91,0,0,1,15.08,2.48c6.79,2.18,16.21,6.6,22.45,15.35l.42.61a10.33,10.33,0,0,0,2.87,3.12,5.59,5.59,0,0,0,2.95.73,16.78,16.78,0,0,0,4.65-.86c1.43-.41,2.85-.85,4.27-1.29A106.63,106.63,0,0,1,356.89,112a41.93,41.93,0,0,1,7.51-.72,27.76,27.76,0,0,1,9.92,1.69,25.83,25.83,0,0,1,10.81,8,40.19,40.19,0,0,1,7.9,17.26c.77,3.78.47,6.71-.89,8.73a6.16,6.16,0,0,1-1.38,1.46A6.82,6.82,0,0,1,386.62,149.65Z"/><path d="M291.85,96.13a48.58,48.58,0,0,1,14.77,2.44c8.58,2.74,16.71,7.63,21.94,15,1.06,1.48,2,3.08,3.59,4a6.68,6.68,0,0,0,3.47.87,17.78,17.78,0,0,0,4.93-.9c5.49-1.6,10.89-3.52,16.52-4.54a41,41,0,0,1,7.33-.7A27,27,0,0,1,374,113.9a25,25,0,0,1,10.39,7.69,39,39,0,0,1,7.69,16.82c.54,2.67.71,5.83-.73,8a5,5,0,0,1-1.17,1.22,5.8,5.8,0,0,1-3.53,1.05,16,16,0,0,1-4.95-1c-9.08-3-17.79-7.09-26.94-10a106.12,106.12,0,0,0-22.11-4.38q-4.87-.44-9.77-.43-3.75,0-7.5.25a108.39,108.39,0,0,0-19.77,3.21c-5.33,1.38-10.83,4.49-16.37,4.49a14.79,14.79,0,0,1-1.75-.1,18.57,18.57,0,0,1-14.19-10.64A21.06,21.06,0,0,1,262,117.65a24.1,24.1,0,0,1,3.74-9C270,102.43,277,98.37,284.34,96.87a37.14,37.14,0,0,1,7.51-.74m0-2a39.37,39.37,0,0,0-7.91.78c-8.31,1.69-15.56,6.28-19.89,12.58a25.83,25.83,0,0,0-4.06,9.79,22.81,22.81,0,0,0,1.46,13.64,20.51,20.51,0,0,0,15.76,11.8,16.4,16.4,0,0,0,2,.12c4,0,7.77-1.39,11.44-2.75,1.89-.69,3.67-1.35,5.43-1.81a107,107,0,0,1,19.41-3.14c2.44-.17,4.92-.25,7.36-.25,3.19,0,6.42.14,9.59.42a104.66,104.66,0,0,1,21.7,4.3c4.85,1.52,9.7,3.42,14.38,5.27,4.07,1.6,8.28,3.25,12.52,4.67a18.2,18.2,0,0,0,5.58,1.1,7.78,7.78,0,0,0,4.72-1.44,7,7,0,0,0,1.63-1.72c1.51-2.24,1.86-5.43,1-9.48a41.14,41.14,0,0,0-8.11-17.69A26.78,26.78,0,0,0,374.68,112a29.06,29.06,0,0,0-10.28-1.75,43,43,0,0,0-7.69.73,107.12,107.12,0,0,0-12.47,3.31c-1.41.43-2.83.87-4.25,1.28a15.92,15.92,0,0,1-4.37.82,4.66,4.66,0,0,1-2.45-.59,9.73,9.73,0,0,1-2.55-2.83l-.43-.62c-6.4-9-16-13.5-23-15.72a50.59,50.59,0,0,0-15.38-2.53Z"/><path class="cls-13" d="M391.53,146.8a17.32,17.32,0,0,1-5.27-1.05c-4.21-1.41-8.4-3.06-12.46-4.65-4.7-1.85-9.56-3.77-14.45-5.29a104.73,104.73,0,0,0-21.91-4.34c-3.2-.29-6.46-.43-9.68-.43-2.47,0-5,.08-7.43.25a108.46,108.46,0,0,0-19.59,3.18,55.92,55.92,0,0,0-5.53,1.84c-3.59,1.32-7.3,2.69-11.09,2.69a14.44,14.44,0,0,1-1.87-.12,19.53,19.53,0,0,1-15-11.22,21.88,21.88,0,0,1-1.39-13,24.88,24.88,0,0,1,3.9-9.4C274,99.12,281,94.68,289.05,93a38.85,38.85,0,0,1,7.71-.76,49.62,49.62,0,0,1,15.08,2.49c6.8,2.17,16.21,6.59,22.45,15.34l.43.61a10.18,10.18,0,0,0,2.86,3.12,5.59,5.59,0,0,0,2.95.73,16.78,16.78,0,0,0,4.65-.86c1.43-.41,2.85-.85,4.27-1.29a106.63,106.63,0,0,1,12.35-3.27,42.12,42.12,0,0,1,7.52-.72,28,28,0,0,1,9.92,1.69,25.86,25.86,0,0,1,10.8,8,40.07,40.07,0,0,1,7.9,17.26c.77,3.78.47,6.71-.88,8.73a6.21,6.21,0,0,1-1.39,1.46A6.82,6.82,0,0,1,391.53,146.8Z"/><path d="M296.76,93.28a48.64,48.64,0,0,1,14.78,2.44c8.57,2.74,16.7,7.64,21.93,15,1.06,1.48,2,3.08,3.59,4a6.68,6.68,0,0,0,3.47.87,17.78,17.78,0,0,0,4.93-.9c5.49-1.6,10.9-3.52,16.52-4.54a41,41,0,0,1,7.34-.7,27,27,0,0,1,9.56,1.62,25,25,0,0,1,10.39,7.69A39,39,0,0,1,397,135.56c.55,2.67.71,5.83-.73,8a5.14,5.14,0,0,1-1.16,1.22,5.85,5.85,0,0,1-3.54,1.05,16,16,0,0,1-4.95-1c-9.08-3-17.79-7.09-26.93-10a106.21,106.21,0,0,0-22.12-4.38q-4.87-.43-9.77-.43-3.75,0-7.5.25a109.26,109.26,0,0,0-19.77,3.21c-5.33,1.38-10.82,4.5-16.37,4.5a14.52,14.52,0,0,1-1.74-.11,18.55,18.55,0,0,1-14.19-10.64,20.9,20.9,0,0,1-1.32-12.45,23.92,23.92,0,0,1,3.73-9c4.27-6.19,11.27-10.25,18.65-11.75a37.14,37.14,0,0,1,7.51-.74m0-2a39.37,39.37,0,0,0-7.91.78c-8.3,1.69-15.55,6.28-19.89,12.58a26.05,26.05,0,0,0-4.06,9.79,22.81,22.81,0,0,0,1.46,13.64,20.53,20.53,0,0,0,15.77,11.8,16.09,16.09,0,0,0,2,.13c4,0,7.77-1.4,11.44-2.76,1.89-.69,3.67-1.35,5.43-1.81a107.33,107.33,0,0,1,19.41-3.14c2.44-.17,4.92-.25,7.36-.25,3.19,0,6.42.14,9.59.42a104.66,104.66,0,0,1,21.7,4.3c4.86,1.52,9.7,3.42,14.38,5.27,4.07,1.6,8.28,3.25,12.52,4.67a18.26,18.26,0,0,0,5.58,1.1,7.83,7.83,0,0,0,4.73-1.44,7.19,7.19,0,0,0,1.63-1.72c1.51-2.24,1.86-5.43,1-9.48a41.38,41.38,0,0,0-8.11-17.69,26.87,26.87,0,0,0-11.23-8.29,29,29,0,0,0-10.27-1.75,43.18,43.18,0,0,0-7.7.73,107.66,107.66,0,0,0-12.47,3.31c-1.41.43-2.83.87-4.25,1.28a15.92,15.92,0,0,1-4.37.82,4.6,4.6,0,0,1-2.44-.59,9.76,9.76,0,0,1-2.56-2.83c-.14-.21-.28-.42-.43-.62-6.4-9-16-13.5-23-15.72a50.55,50.55,0,0,0-15.38-2.53Z"/><path d="M337.53,130.47a110.65,110.65,0,0,0-17.27-.18,109.26,109.26,0,0,0-19.77,3.21c-5.89,1.52-12,5.17-18.11,4.39a18.55,18.55,0,0,1-14.19-10.64,20.9,20.9,0,0,1-1.32-12.45,29.06,29.06,0,0,1,3-3.9,31.32,31.32,0,0,1,8.88-6.8c9.62-4.92,21.35-4.84,31.45-1s18.6,11.22,25,19.9a13.47,13.47,0,0,1,2.38,4.38A5.59,5.59,0,0,1,337.53,130.47Z"/><path d="M396.23,143.53q-11.79-4-23.59-8.1a21.33,21.33,0,0,1-6.81-3.32,9.52,9.52,0,0,1-3.57-7.22,7.9,7.9,0,0,1,3.08-6,13.06,13.06,0,0,1,5.85-2.31,32.35,32.35,0,0,1,18.08,2.12A39,39,0,0,1,397,135.56C397.51,138.23,397.67,141.39,396.23,143.53Z"/><path class="cls-14" d="M202.05,176.93A182.34,182.34,0,0,1,150.74,191l12-19.05c8.05-2.91,16.14-5.66,24-9.06,2.64-1.15,5.27-2.33,7.87-3.55A39.87,39.87,0,0,0,202.05,176.93Z"/></g></svg>